<?xml version="1.0" encoding="UTF-8" standalone="no"?><!DOCTYPE svg PUBLIC "-//W3C//DTD SVG 1.1//EN" "http://www.w3.org/Graphics/SVG/1.1/DTD/svg11.dtd"><svg width="100%" height="100%" viewBox="0 0 310 310" version="1.1" xmlns="http://www.w3.org/2000/svg" xmlns:xlink="http://www.w3.org/1999/xlink" xml:space="preserve" style="fill-rule:evenodd;clip-rule:evenodd;stroke-linejoin:round;stroke-miterlimit:1.41421;"><path d="M310,77.5c0,-42.773 -34.727,-77.5 -77.5,-77.5l-155,0c-42.773,0 -77.5,34.727 -77.5,77.5l0,155c0,42.773 34.727,77.5 77.5,77.5l155,0c42.773,0 77.5,-34.727 77.5,-77.5l0,-155ZM213.22,174.647l26.012,-120.771c0.113,-0.337 0.197,-0.732 0.254,-1.182c0.056,-0.45 0.084,-1.07 0.084,-1.858c0,-2.928 -0.985,-5.18 -2.956,-6.756c-1.971,-1.577 -4.814,-2.365 -8.53,-2.365c-4.842,0 -8.276,0.704 -10.303,2.111c-2.027,1.408 -3.547,4.645 -4.561,9.713l-15.877,78.543c-2.59,12.724 -9.572,23.506 -20.945,32.346c-11.374,8.84 -23.873,13.259 -37.498,13.259c-9.009,0 -15.765,-1.886 -20.269,-5.658c-4.505,-3.772 -6.757,-9.375 -6.757,-16.807c0,-1.238 0.169,-2.956 0.507,-5.151c0.338,-2.196 1.013,-5.659 2.027,-10.388l19.593,-90.029c0.113,-0.338 0.197,-0.704 0.254,-1.098c0.056,-0.394 0.084,-0.929 0.084,-1.605c0,-1.914 -0.591,-3.265 -1.773,-4.054c-1.183,-0.788 -3.35,-1.182 -6.503,-1.182l-29.391,0c-4.954,0 -8.727,1.154 -11.317,3.463c-2.59,2.308 -3.885,5.658 -3.885,10.05c0,3.265 0.873,5.714 2.618,7.347c1.746,1.633 4.364,2.449 7.855,2.449l13.344,0l-36.654,177.694c-0.675,3.153 -1.182,5.94 -1.52,8.361c-0.338,2.421 -0.507,4.476 -0.507,6.165c0,3.378 0.986,5.855 2.956,7.432c1.971,1.576 5.152,2.365 9.544,2.365c3.828,0 6.7,-1.352 8.614,-4.054c1.914,-2.703 3.547,-7.826 4.898,-15.371l9.966,-56.416c3.829,3.716 7.911,6.391 12.246,8.023c4.335,1.633 9.712,2.45 16.131,2.45c10.472,0 20.382,-1.999 29.728,-5.997c9.346,-3.997 18.468,-10.106 27.364,-18.326l-3.548,12.161c0,0.225 -0.112,0.563 -0.337,1.014c-0.226,1.013 -0.338,1.689 -0.338,2.026c0,1.802 0.675,3.125 2.027,3.97c1.351,0.844 3.434,1.267 6.249,1.267l26.688,0c4.955,0 8.727,-1.155 11.317,-3.463c2.59,-2.308 3.885,-5.658 3.885,-10.05c0,-3.266 -0.816,-5.687 -2.449,-7.263c-1.633,-1.577 -4.138,-2.365 -7.517,-2.365l-10.81,0Z" style="fill:#841212;"/></svg>